<?xml version="1.0" standalone="no"?>
<!DOCTYPE svg PUBLIC "-//W3C//DTD SVG 20010904//EN"
 "http://www.w3.org/TR/2001/REC-SVG-20010904/DTD/svg10.dtd">
<svg version="1.0" xmlns="http://www.w3.org/2000/svg"
 width="512.000000pt" height="512.000000pt" viewBox="0 0 512.000000 512.000000"
 preserveAspectRatio="xMidYMid meet">
<metadata>
Created by potrace 1.14, written by Peter Selinger 2001-2017
</metadata>
<g transform="translate(0.000000,512.000000) scale(0.100000,-0.100000)"
fill="#000000" stroke="none">
<path d="M1520 4996 c-112 -51 -193 -93 -275 -144 -55 -34 -219 -144 -225
-151 -3 -3 -39 -33 -80 -66 -41 -33 -120 -105 -175 -160 -426 -424 -685 -961
-752 -1560 -10 -91 -10 -451 0 -535 5 -36 8 -72 9 -80 0 -8 4 -37 9 -65 5 -27
12 -63 15 -80 34 -194 111 -426 207 -629 266 -558 736 -1008 1314 -1259 183
-79 478 -161 658 -182 32 -4 68 -9 80 -12 11 -2 108 -6 215 -8 194 -3 350 6
445 25 28 5 68 12 90 16 72 10 269 63 374 99 275 96 526 236 776 434 82 64
294 274 351 346 21 27 49 61 62 75 45 50 46 48 -160 254 l-194 193 -29 -41
c-222 -314 -556 -575 -920 -718 -77 -31 -206 -71 -263 -83 -9 -2 -37 -8 -62
-13 -25 -6 -63 -13 -85 -16 -22 -3 -69 -10 -105 -15 -63 -9 -417 -7 -472 3
-16 2 -47 7 -70 11 -77 13 -90 16 -152 31 -34 8 -71 17 -83 20 -98 20 -396
151 -489 214 -25 16 -47 30 -50 30 -17 0 -242 180 -315 251 -356 348 -554 760
-614 1274 -6 51 -6 317 0 365 20 157 34 251 40 260 2 3 6 17 8 31 31 168 150
451 264 626 69 106 220 297 224 283 1 -3 2 -338 3 -745 2 -407 6 -769 10 -805
45 -379 223 -707 531 -975 131 -114 399 -251 570 -291 238 -56 447 -62 665
-18 195 39 412 132 565 243 80 58 95 70 200 176 204 203 348 477 400 760 10
50 19 97 21 105 3 9 164 -145 444 -425 242 -242 441 -437 443 -435 8 10 61
150 88 235 42 129 49 155 74 283 l15 72 -783 783 c-430 430 -809 803 -842 827
-33 25 -69 53 -79 63 -11 9 -24 17 -29 17 -5 0 -21 8 -35 19 -130 91 -394 185
-584 208 -145 17 -405 6 -496 -21 -9 -3 -28 -7 -42 -10 -130 -22 -354 -123
-506 -229 l-81 -56 0 620 c0 341 -2 621 -4 623 -2 3 -56 -19 -119 -48z m1290
-1446 c372 -100 645 -406 697 -783 3 -23 5 -89 5 -147 -4 -454 -357 -848 -812
-906 -103 -13 -192 -10 -309 11 -203 36 -420 172 -554 347 -189 248 -243 570
-145 868 104 319 386 563 723 625 107 20 292 13 395 -15z"/>
<path d="M2453 3011 c-355 -132 -347 -624 12 -741 122 -40 276 -5 373 84 80
73 122 162 128 267 8 158 -80 307 -223 375 -79 37 -212 44 -290 15z"/>
</g>
</svg>
